STARTFONT 2.1
FONT -misc-Darn-Bold-R-Normal--38-380-72-72-M-180-ISO10646-1
SIZE 38 72 72
FONTBOUNDINGBOX 68 38 -50 -8
COMMENT "Generated by fontforge, http://fontforge.sourceforge.net"
STARTPROPERTIES 34
FAMILY_NAME "Darn"
WEIGHT_NAME "Bold"
SLANT "R"
SETWIDTH_NAME "Normal"
FONT_NAME "DarnBold"
FACE_NAME "Darn Bold"
FONT_VERSION "0.100"
COPYRIGHT "Copyright (c) 2020, Gabriel Holodak"
PIXEL_SIZE 38
POINT_SIZE 380
RESOLUTION_X 72
RESOLUTION_Y 72
SPACING "M"
AVERAGE_WIDTH 180
FONT_ASCENT 30
FONT_DESCENT 8
UNDERLINE_POSITION -5
UNDERLINE_THICKNESS 2
X_HEIGHT 17
CAP_HEIGHT 23
RAW_ASCENT 789
RAW_DESCENT 210
NORM_SPACE 18
RELATIVE_WEIGHT 50
RELATIVE_SETWIDTH 50
SUPERSCRIPT_X 0
SUPERSCRIPT_Y 0
SUPERSCRIPT_SIZE 0
SUBSCRIPT_X 0
SUBSCRIPT_Y 0
SUBSCRIPT_SIZE 0
FIGURE_WIDTH 18
AVG_LOWERCASE_WIDTH 180
AVG_UPPERCASE_WIDTH 180
ENDPROPERTIES
CHARS 210
STARTCHAR space
ENCODING 32
SWIDTH 473 0
DWIDTH 18 0
BBX 1 1 0 0
BITMAP
00
ENDCHAR
STARTCHAR exclam
ENCODING 33
SWIDTH 473 0
DWIDTH 18 0
BBX 5 24 7 0
BITMAP
70
70
70
70
70
70
70
70
70
70
70
70
70
70
70
70
70
00
00
00
70
F8
F8
70
ENDCHAR
STARTCHAR quotedbl
ENCODING 34
SWIDTH 473 0
DWIDTH 18 0
BBX 10 8 5 18
BITMAP
F3C0
F3C0
F3C0
F3C0
F3C0
F3C0
F3C0
6180
ENDCHAR
STARTCHAR numbersign
ENCODING 35
SWIDTH 473 0
DWIDTH 18 0
BBX 13 24 4 0
BITMAP
38E0
38E0
38E0
38E0
38E0
FFF8
FFF8
FFF8
38E0
38E0
38E0
38E0
38E0
38E0
38E0
38E0
FFF8
FFF8
FFF8
38E0
38E0
38E0
38E0
38E0
ENDCHAR
STARTCHAR dollar
ENCODING 36
SWIDTH 473 0
DWIDTH 18 0
BBX 15 30 2 -3
BITMAP
0380
0380
0380
1FF0
3FFC
7BBE
F38E
E380
E380
E380
E380
F380
7B80
3F80
1FC0
07F0
03F8
03BC
039E
038E
038E
038E
038E
E39E
FBBC
7FF8
1FF0
0380
0380
0380
ENDCHAR
STARTCHAR percent
ENCODING 37
SWIDTH 473 0
DWIDTH 18 0
BBX 15 24 2 0
BITMAP
1C00
7F00
770E
E39E
E39C
E3BC
E3F8
7770
7FF0
1DE0
01C0
03C0
0780
0700
0F70
1FFC
1DDC
3F8E
7B8E
738E
F38E
E1DC
01FC
0070
ENDCHAR
STARTCHAR ampersand
ENCODING 38
SWIDTH 473 0
DWIDTH 18 0
BBX 16 24 2 0
BITMAP
0780
1FC0
1FC0
3CE0
38E0
38E0
39E0
3BC0
1F80
1F00
0E00
1F00
3F00
7B80
F38E
E1CE
E1FE
E0FC
E078
E070
F0F8
7FFF
3FDF
1F8F
ENDCHAR
STARTCHAR quotesingle
ENCODING 39
SWIDTH 473 0
DWIDTH 18 0
BBX 4 8 8 18
BITMAP
F0
F0
F0
F0
F0
F0
F0
60
ENDCHAR
STARTCHAR parenleft
ENCODING 40
SWIDTH 473 0
DWIDTH 18 0
BBX 9 28 6 -2
BITMAP
0180
0380
0700
0E00
1C00
3800
3800
7000
7000
F000
E000
E000
E000
E000
E000
E000
E000
E000
F000
7000
7000
3800
3800
1C00
0E00
0700
0380
0180
ENDCHAR
STARTCHAR parenright
ENCODING 41
SWIDTH 473 0
DWIDTH 18 0
BBX 9 28 4 -2
BITMAP
C000
E000
7000
3800
1C00
0E00
0E00
0700
0700
0780
0380
0380
0380
0380
0380
0380
0380
0380
0780
0700
0700
0E00
0E00
1C00
3800
7000
E000
C000
ENDCHAR
STARTCHAR asterisk
ENCODING 42
SWIDTH 473 0
DWIDTH 18 0
BBX 15 14 2 6
BITMAP
0380
0380
E38E
739C
3BB8
1FF0
0FE0
0FE0
1FF0
3BF8
739C
E38E
0380
0380
ENDCHAR
STARTCHAR plus
ENCODING 43
SWIDTH 473 0
DWIDTH 18 0
BBX 15 15 2 3
BITMAP
0380
0380
0380
0380
0380
0380
FFFE
FFFE
FFFE
0380
0380
0380
0380
0380
0380
ENDCHAR
STARTCHAR comma
ENCODING 44
SWIDTH 473 0
DWIDTH 18 0
BBX 5 10 8 -4
BITMAP
F8
F8
F8
F8
38
38
70
70
E0
C0
ENDCHAR
STARTCHAR hyphen
ENCODING 45
SWIDTH 473 0
DWIDTH 18 0
BBX 13 3 4 9
BITMAP
FFF8
FFF8
FFF8
ENDCHAR
STARTCHAR period
ENCODING 46
SWIDTH 473 0
DWIDTH 18 0
BBX 6 6 7 -1
BITMAP
30
78
FC
FC
78
30
ENDCHAR
STARTCHAR slash
ENCODING 47
SWIDTH 473 0
DWIDTH 18 0
BBX 14 24 3 0
BITMAP
001C
001C
0038
0038
0070
0070
00E0
00E0
01C0
01C0
0380
0380
0700
0700
0E00
0E00
1C00
1C00
3800
3800
7000
7000
E000
E000
ENDCHAR
STARTCHAR zero
ENCODING 48
SWIDTH 473 0
DWIDTH 18 0
BBX 15 24 2 0
BITMAP
07C0
0FE0
1FF0
3C78
3838
787C
707C
F0EE
E0EE
E1CE
E1CE
E38E
E38E
E70E
E70E
EE0E
EE1E
7C1C
7C3C
3838
3C78
1FF0
0FE0
07C0
ENDCHAR
STARTCHAR one
ENCODING 49
SWIDTH 473 0
DWIDTH 18 0
BBX 15 24 2 0
BITMAP
0380
0780
0F80
1F80
3F80
7B80
F380
E380
0380
0380
0380
0380
0380
0380
0380
0380
0380
0380
0380
0380
0380
FFFE
FFFE
FFFE
ENDCHAR
STARTCHAR two
ENCODING 50
SWIDTH 473 0
DWIDTH 18 0
BBX 15 24 2 0
BITMAP
07C0
1FF0
3FF8
7C7C
F01C
E01E
000E
000E
001E
001C
003C
0078
00F0
01E0
03C0
0780
0F00
1E00
3C00
7800
F000
FFFC
FFFC
FFFC
ENDCHAR
STARTCHAR three
ENCODING 51
SWIDTH 473 0
DWIDTH 18 0
BBX 15 24 2 0
BITMAP
1FC0
7FF0
FFF8
F078
003C
001C
001C
003C
0038
0078
0FF0
0FF0
0FF8
003C
001C
001E
000E
000E
001E
001C
F07C
FFF8
7FF0
1FC0
ENDCHAR
STARTCHAR four
ENCODING 52
SWIDTH 473 0
DWIDTH 18 0
BBX 15 24 2 0
BITMAP
0038
0078
00F8
01F8
03F8
07B8
0F38
1E38
3C38
7838
F038
E038
E038
FFFE
FFFE
FFFE
0038
0038
0038
0038
0038
0038
0038
0038
ENDCHAR
STARTCHAR five
ENCODING 53
SWIDTH 473 0
DWIDTH 18 0
BBX 15 24 2 0
BITMAP
FFFE
FFFE
FFFE
E000
E000
E000
E000
E000
E000
FF80
FFE0
FFF0
00F8
003C
001C
001E
000E
000E
001E
001C
F07C
FFF8
7FF0
1FC0
ENDCHAR
STARTCHAR six
ENCODING 54
SWIDTH 473 0
DWIDTH 18 0
BBX 15 24 2 0
BITMAP
07F0
1FFC
3FFE
7C1E
7000
F000
E000
E000
E000
E000
E7C0
FFF0
FFF8
FC7C
F01C
F01E
E00E
E00E
F01E
701C
7C7C
3FF8
1FF0
07C0
ENDCHAR
STARTCHAR seven
ENCODING 55
SWIDTH 473 0
DWIDTH 18 0
BBX 15 24 2 0
BITMAP
FFFE
FFFE
FFFE
000E
000E
001E
003C
0078
00F0
00E0
00E0
01E0
01C0
01C0
03C0
0380
0380
0380
0380
0380
0380
0380
0380
0380
ENDCHAR
STARTCHAR eight
ENCODING 56
SWIDTH 473 0
DWIDTH 18 0
BBX 15 24 2 0
BITMAP
07C0
1FF0
3FF8
3C78
783C
701C
701C
783C
3838
3EF8
0FE0
1FF0
3FF8
7C7C
701C
F01E
E00E
E00E
F01E
701C
7C7C
3FF8
1FF0
07C0
ENDCHAR
STARTCHAR nine
ENCODING 57
SWIDTH 473 0
DWIDTH 18 0
BBX 15 24 2 0
BITMAP
07C0
1FF0
3FF8
7C7C
701C
F01E
E00E
E00E
F01E
701E
7C7E
3FFE
1FEE
078E
000E
000E
000E
000E
001E
001C
F07C
FFF8
7FF0
1FC0
ENDCHAR
STARTCHAR colon
ENCODING 58
SWIDTH 473 0
DWIDTH 18 0
BBX 6 16 7 5
BITMAP
30
78
FC
FC
78
30
00
00
00
00
30
78
FC
FC
78
30
ENDCHAR
STARTCHAR semicolon
ENCODING 59
SWIDTH 473 0
DWIDTH 18 0
BBX 6 25 7 -4
BITMAP
30
78
FC
FC
78
30
00
00
00
00
00
00
00
00
00
7C
7C
7C
7C
1C
1C
38
38
70
60
ENDCHAR
STARTCHAR less
ENCODING 60
SWIDTH 473 0
DWIDTH 18 0
BBX 13 22 4 2
BITMAP
0038
0078
00F0
01E0
03C0
0780
0F00
1E00
3C00
7800
F000
F000
7800
3C00
1E00
0F00
0780
03C0
01E0
00F0
0078
0038
ENDCHAR
STARTCHAR equal
ENCODING 61
SWIDTH 473 0
DWIDTH 18 0
BBX 13 13 4 5
BITMAP
FFF8
FFF8
FFF8
0000
0000
0000
0000
0000
0000
0000
FFF8
FFF8
FFF8
ENDCHAR
STARTCHAR greater
ENCODING 62
SWIDTH 473 0
DWIDTH 18 0
BBX 13 22 4 2
BITMAP
E000
F000
7800
3C00
1E00
0F00
0780
03C0
01E0
00F0
0078
0078
00F0
01E0
03C0
0780
0F00
1E00
3C00
7800
F000
E000
ENDCHAR
STARTCHAR question
ENCODING 63
SWIDTH 473 0
DWIDTH 18 0
BBX 15 24 2 0
BITMAP
07C0
1FF0
3FF8
7C7C
F01C
E01E
000E
000E
001E
001C
003C
0078
00F0
01E0
03C0
0380
0380
0380
0000
0000
0380
07C0
07C0
0380
ENDCHAR
STARTCHAR at
ENCODING 64
SWIDTH 473 0
DWIDTH 18 0
BBX 15 24 2 0
BITMAP
0FE0
1FF0
3FF8
783C
739C
F7DE
E7CE
EEEE
EEEE
EEEE
EEEE
EEEE
EEEE
EEEE
EEEE
EEEE
EEFE
E7FC
F7FC
7338
7800
3FF8
1FF8
07F8
ENDCHAR
STARTCHAR A
ENCODING 65
SWIDTH 473 0
DWIDTH 18 0
BBX 15 24 2 0
BITMAP
0380
0380
07C0
07C0
0EE0
0EE0
1C70
1C70
3838
3838
701C
701C
E00E
FFFE
FFFE
FFFE
E00E
E00E
E00E
E00E
E00E
E00E
E00E
E00E
ENDCHAR
STARTCHAR B
ENCODING 66
SWIDTH 473 0
DWIDTH 18 0
BBX 15 24 2 0
BITMAP
FFC0
FFF0
FFF8
E078
E03C
E01C
E01C
E03C
E038
E0F8
FFF0
FFF0
FFF8
E07C
E01C
E01E
E00E
E00E
E01E
E01C
E07C
FFF8
FFF0
FFC0
ENDCHAR
STARTCHAR C
ENCODING 67
SWIDTH 473 0
DWIDTH 18 0
BBX 15 24 2 0
BITMAP
07C0
1FF0
3FF8
7C7C
701C
F01E
E00E
E000
E000
E000
E000
E000
E000
E000
E000
E000
E000
E00E
F01E
701C
7C7C
3FF8
1FF0
07C0
ENDCHAR
STARTCHAR D
ENCODING 68
SWIDTH 473 0
DWIDTH 18 0
BBX 15 24 2 0
BITMAP
FF00
FFC0
FFE0
E1F0
E078
E03C
E01C
E01E
E00E
E00E
E00E
E00E
E00E
E00E
E00E
E00E
E01E
E01C
E03C
E078
E1F0
FFE0
FFC0
FF00
ENDCHAR
STARTCHAR E
ENCODING 69
SWIDTH 473 0
DWIDTH 18 0
BBX 15 24 2 0
BITMAP
FFFE
FFFE
FFFE
E000
E000
E000
E000
E000
E000
E000
FFF8
FFF8
FFF8
E000
E000
E000
E000
E000
E000
E000
E000
FFFE
FFFE
FFFE
ENDCHAR
STARTCHAR F
ENCODING 70
SWIDTH 473 0
DWIDTH 18 0
BBX 15 24 2 0
BITMAP
FFFE
FFFE
FFFE
E000
E000
E000
E000
E000
E000
E000
FFF8
FFF8
FFF8
E000
E000
E000
E000
E000
E000
E000
E000
E000
E000
E000
ENDCHAR
STARTCHAR G
ENCODING 71
SWIDTH 473 0
DWIDTH 18 0
BBX 15 24 2 0
BITMAP
07C0
1FF0
3FF8
7C7C
701C
F01E
E00E
E000
E000
E000
E000
E000
E0FE
E0FE
E0FE
E00E
E00E
E00E
F01E
701E
7C7E
3FFE
1FEE
07CE
ENDCHAR
STARTCHAR H
ENCODING 72
SWIDTH 473 0
DWIDTH 18 0
BBX 15 24 2 0
BITMAP
E00E
E00E
E00E
E00E
E00E
E00E
E00E
E00E
E00E
E00E
FFFE
FFFE
FFFE
E00E
E00E
E00E
E00E
E00E
E00E
E00E
E00E
E00E
E00E
E00E
ENDCHAR
STARTCHAR I
ENCODING 73
SWIDTH 473 0
DWIDTH 18 0
BBX 15 24 2 0
BITMAP
FFFE
FFFE
FFFE
0380
0380
0380
0380
0380
0380
0380
0380
0380
0380
0380
0380
0380
0380
0380
0380
0380
0380
FFFE
FFFE
FFFE
ENDCHAR
STARTCHAR J
ENCODING 74
SWIDTH 473 0
DWIDTH 18 0
BBX 16 24 2 0
BITMAP
03FF
03FF
03FF
000E
000E
000E
000E
000E
000E
000E
000E
000E
000E
000E
000E
000E
000E
000E
E01E
F01C
7C7C
3FF8
1FF0
07C0
ENDCHAR
STARTCHAR K
ENCODING 75
SWIDTH 473 0
DWIDTH 18 0
BBX 15 24 2 0
BITMAP
E00E
E01E
E03C
E078
E0F0
E1E0
E3C0
E780
EF00
FE00
FC00
F800
F800
FC00
FE00
EF00
E780
E3C0
E1E0
E0F0
E078
E03C
E01E
E00E
ENDCHAR
STARTCHAR L
ENCODING 76
SWIDTH 473 0
DWIDTH 18 0
BBX 15 24 2 0
BITMAP
E000
E000
E000
E000
E000
E000
E000
E000
E000
E000
E000
E000
E000
E000
E000
E000
E000
E000
E000
E000
E000
FFFE
FFFE
FFFE
ENDCHAR
STARTCHAR M
ENCODING 77
SWIDTH 473 0
DWIDTH 18 0
BBX 15 24 2 0
BITMAP
E00E
E00E
F01E
F01E
F83E
F83E
FC7E
FC7E
FEFE
EEEE
EFEE
E7CE
E7CE
E38E
E38E
E00E
E00E
E00E
E00E
E00E
E00E
E00E
E00E
E00E
ENDCHAR
STARTCHAR N
ENCODING 78
SWIDTH 473 0
DWIDTH 18 0
BBX 15 24 2 0
BITMAP
E00E
F00E
F00E
F80E
F80E
FC0E
FC0E
EE0E
EE0E
E70E
E70E
E38E
E38E
E1CE
E1CE
E0EE
E0EE
E07E
E07E
E03E
E03E
E01E
E01E
E00E
ENDCHAR
STARTCHAR O
ENCODING 79
SWIDTH 473 0
DWIDTH 18 0
BBX 15 24 2 0
BITMAP
07C0
1FF0
3FF8
7C7C
701C
F01E
E00E
E00E
E00E
E00E
E00E
E00E
E00E
E00E
E00E
E00E
E00E
E00E
F01E
701C
7C7C
3FF8
1FF0
07C0
ENDCHAR
STARTCHAR P
ENCODING 80
SWIDTH 473 0
DWIDTH 18 0
BBX 15 24 2 0
BITMAP
FFC0
FFF0
FFF8
E07C
E01C
E01E
E00E
E00E
E01E
E01C
E07C
FFF8
FFF0
FFC0
E000
E000
E000
E000
E000
E000
E000
E000
E000
E000
ENDCHAR
STARTCHAR Q
ENCODING 81
SWIDTH 473 0
DWIDTH 18 0
BBX 15 27 2 -3
BITMAP
07C0
1FF0
3EF8
783C
701C
F01E
E00E
E00E
E00E
E00E
E00E
E00E
E00E
E00E
E00E
E00E
E00E
E00E
F39E
77DC
7EFC
3EF8
1FF0
07E0
007E
003E
001E
ENDCHAR
STARTCHAR R
ENCODING 82
SWIDTH 473 0
DWIDTH 18 0
BBX 15 24 2 0
BITMAP
FFC0
FFF0
FFF8
E07C
E01C
E01E
E00E
E00E
E01E
E01C
E07C
FFF8
FFF0
FFE0
E0E0
E0F0
E070
E078
E038
E03C
E01C
E01E
E00E
E00E
ENDCHAR
STARTCHAR S
ENCODING 83
SWIDTH 473 0
DWIDTH 18 0
BBX 15 24 2 0
BITMAP
07C0
1FF0
3FF8
7C7C
701E
F01E
E000
E000
F000
7000
7F00
3FE0
0FF8
01FC
001C
001E
000E
000E
F01E
F01C
7C7C
3FF8
1FF0
07C0
ENDCHAR
STARTCHAR T
ENCODING 84
SWIDTH 473 0
DWIDTH 18 0
BBX 15 24 2 0
BITMAP
FFFE
FFFE
FFFE
0380
0380
0380
0380
0380
0380
0380
0380
0380
0380
0380
0380
0380
0380
0380
0380
0380
0380
0380
0380
0380
ENDCHAR
STARTCHAR U
ENCODING 85
SWIDTH 473 0
DWIDTH 18 0
BBX 15 24 2 0
BITMAP
E00E
E00E
E00E
E00E
E00E
E00E
E00E
E00E
E00E
E00E
E00E
E00E
E00E
E00E
E00E
E00E
E00E
E00E
F01E
701C
7C7C
3FF8
1FF0
07C0
ENDCHAR
STARTCHAR V
ENCODING 86
SWIDTH 473 0
DWIDTH 18 0
BBX 15 24 2 0
BITMAP
E00E
E00E
E00E
E00E
E00E
E00E
E00E
E00E
E00E
E00E
E00E
E00E
701C
701C
3838
3838
1C70
1C70
0EE0
0EE0
07C0
07C0
0380
0380
ENDCHAR
STARTCHAR W
ENCODING 87
SWIDTH 473 0
DWIDTH 18 0
BBX 15 24 2 0
BITMAP
E00E
E00E
E00E
E00E
E00E
E00E
E00E
E00E
E00E
E00E
E00E
E00E
E00E
E38E
E38E
E38E
E7CE
E7CE
EEEE
EEEE
7C7C
7C7C
3838
3838
ENDCHAR
STARTCHAR X
ENCODING 88
SWIDTH 473 0
DWIDTH 18 0
BBX 15 24 2 0
BITMAP
E00E
E00E
E00E
E00E
E00E
E00E
F01E
783C
3C78
1EF0
0FE0
07C0
07C0
0FE0
1EF0
3C78
783C
F01E
E00E
E00E
E00E
E00E
E00E
E00E
ENDCHAR
STARTCHAR Y
ENCODING 89
SWIDTH 473 0
DWIDTH 18 0
BBX 15 24 2 0
BITMAP
E00E
E00E
E00E
E00E
E00E
E00E
E00E
F01E
783C
3C78
1EF0
0FE0
07C0
0380
0380
0380
0380
0380
0380
0380
0380
0380
0380
0380
ENDCHAR
STARTCHAR Z
ENCODING 90
SWIDTH 473 0
DWIDTH 18 0
BBX 15 24 2 0
BITMAP
FFFE
FFFE
FFFE
001E
003C
0038
0078
00F0
00E0
01E0
03C0
0380
0780
0F00
0E00
1E00
3C00
3800
7800
F000
E000
FFFE
FFFE
FFFE
ENDCHAR
STARTCHAR bracketleft
ENCODING 91
SWIDTH 473 0
DWIDTH 18 0
BBX 9 28 6 -2
BITMAP
FF80
FF80
FF80
E000
E000
E000
E000
E000
E000
E000
E000
E000
E000
E000
E000
E000
E000
E000
E000
E000
E000
E000
E000
E000
E000
FF80
FF80
FF80
ENDCHAR
STARTCHAR backslash
ENCODING 92
SWIDTH 473 0
DWIDTH 18 0
BBX 14 24 3 0
BITMAP
E000
E000
7000
7000
3800
3800
1C00
1C00
0E00
0E00
0700
0700
0380
0380
01C0
01C0
00E0
00E0
0070
0070
0038
0038
001C
001C
ENDCHAR
STARTCHAR bracketright
ENCODING 93
SWIDTH 473 0
DWIDTH 18 0
BBX 9 28 4 -2
BITMAP
FF80
FF80
FF80
0380
0380
0380
0380
0380
0380
0380
0380
0380
0380
0380
0380
0380
0380
0380
0380
0380
0380
0380
0380
0380
0380
FF80
FF80
FF80
ENDCHAR
STARTCHAR asciicircum
ENCODING 94
SWIDTH 473 0
DWIDTH 18 0
BBX 15 7 2 19
BITMAP
0380
07C0
0FE0
1EF0
3C78
783C
F01E
ENDCHAR
STARTCHAR underscore
ENCODING 95
SWIDTH 473 0
DWIDTH 18 0
BBX 15 3 2 -3
BITMAP
FFFE
FFFE
FFFE
ENDCHAR
STARTCHAR grave
ENCODING 96
SWIDTH 473 0
DWIDTH 18 0
BBX 9 8 6 18
BITMAP
E000
F000
7800
3C00
1E00
0F00
0780
0380
ENDCHAR
STARTCHAR a
ENCODING 97
SWIDTH 473 0
DWIDTH 18 0
BBX 15 18 2 0
BITMAP
1FF0
7FFC
FFFC
F01E
000E
000E
000E
1FFE
7FFE
7FFE
F00E
E00E
E00E
E00E
F01E
7FFE
7FFE
1FEE
ENDCHAR
STARTCHAR b
ENCODING 98
SWIDTH 473 0
DWIDTH 18 0
BBX 15 26 2 0
BITMAP
E000
E000
E000
E000
E000
E000
E000
E000
EFC0
FFF0
FFF8
F07C
E01C
E01E
E00E
E00E
E00E
E00E
E00E
E00E
E01E
E01C
F07C
FFF8
FFF0
EFC0
ENDCHAR
STARTCHAR c
ENCODING 99
SWIDTH 473 0
DWIDTH 18 0
BBX 15 18 2 0
BITMAP
07C0
1FF0
3FF8
7C3C
701E
F00E
E000
E000
E000
E000
E000
E000
F00E
701E
7C3C
3FF8
1FF0
07C0
ENDCHAR
STARTCHAR d
ENCODING 100
SWIDTH 473 0
DWIDTH 18 0
BBX 15 26 2 0
BITMAP
000E
000E
000E
000E
000E
000E
000E
000E
07EE
1FFE
3FFE
7C1E
700E
F00E
E00E
E00E
E00E
E00E
E00E
E00E
F00E
700E
7C1E
3FFE
1FFE
07EE
ENDCHAR
STARTCHAR e
ENCODING 101
SWIDTH 473 0
DWIDTH 18 0
BBX 15 18 2 0
BITMAP
07C0
1FF0
3FF8
783C
701C
F01E
E00E
FFFE
FFFE
FFFE
E000
E000
F000
7000
7C1E
3FFE
1FFC
07F0
ENDCHAR
STARTCHAR f
ENCODING 102
SWIDTH 473 0
DWIDTH 18 0
BBX 15 26 2 0
BITMAP
00FE
03FE
07FE
0780
0F00
0E00
0E00
0E00
FFF8
FFF8
FFF8
0E00
0E00
0E00
0E00
0E00
0E00
0E00
0E00
0E00
0E00
0E00
0E00
0E00
0E00
0E00
ENDCHAR
STARTCHAR g
ENCODING 103
SWIDTH 473 0
DWIDTH 18 0
BBX 15 26 2 -8
BITMAP
07EE
1FFE
3FFE
7C1E
700E
F00E
E00E
E00E
E00E
E00E
E00E
E00E
F00E
700E
7C1E
3FFE
1FFE
07EE
000E
000E
001E
001C
007C
3FF8
3FF0
3FC0
ENDCHAR
STARTCHAR h
ENCODING 104
SWIDTH 473 0
DWIDTH 18 0
BBX 15 26 2 0
BITMAP
E000
E000
E000
E000
E000
E000
E000
E000
EFC0
FFF0
FFF8
F07C
E01C
E01E
E00E
E00E
E00E
E00E
E00E
E00E
E00E
E00E
E00E
E00E
E00E
E00E
ENDCHAR
STARTCHAR i
ENCODING 105
SWIDTH 473 0
DWIDTH 18 0
BBX 12 25 4 0
BITMAP
0E00
1F00
1F00
0E00
0000
0000
0000
FE00
FE00
FE00
0E00
0E00
0E00
0E00
0E00
0E00
0E00
0E00
0E00
0E00
0E00
0F00
0FF0
07F0
03F0
ENDCHAR
STARTCHAR j
ENCODING 106
SWIDTH 473 0
DWIDTH 18 0
BBX 14 34 2 -8
BITMAP
0038
007C
007C
0038
0000
0000
0000
0000
03F8
03F8
03F8
0038
0038
0038
0038
0038
0038
0038
0038
0038
0038
0038
0038
0038
0038
0038
0038
0038
0078
0070
E1F0
FFE0
7FC0
1F00
ENDCHAR
STARTCHAR k
ENCODING 107
SWIDTH 473 0
DWIDTH 18 0
BBX 13 26 2 0
BITMAP
E000
E000
E000
E000
E000
E000
E000
E000
E038
E078
E0F0
E1E0
E3C0
E780
EF00
FE00
FC00
FC00
FE00
EF00
E780
E3C0
E1E0
E0F0
E078
E038
ENDCHAR
STARTCHAR l
ENCODING 108
SWIDTH 473 0
DWIDTH 18 0
BBX 13 26 4 0
BITMAP
FE00
FE00
FE00
0E00
0E00
0E00
0E00
0E00
0E00
0E00
0E00
0E00
0E00
0E00
0E00
0E00
0E00
0E00
0E00
0E00
0E00
0E00
0F00
0FF8
07F8
03F8
ENDCHAR
STARTCHAR m
ENCODING 109
SWIDTH 473 0
DWIDTH 18 0
BBX 15 18 2 0
BITMAP
EEF8
FFFC
FFFE
F7DE
E38E
E38E
E38E
E38E
E38E
E38E
E38E
E38E
E38E
E38E
E38E
E38E
E38E
E38E
ENDCHAR
STARTCHAR n
ENCODING 110
SWIDTH 473 0
DWIDTH 18 0
BBX 13 18 4 0
BITMAP
EF80
FFE0
FFF0
F0F0
E078
E038
E038
E038
E038
E038
E038
E038
E038
E038
E038
E038
E038
E038
ENDCHAR
STARTCHAR o
ENCODING 111
SWIDTH 473 0
DWIDTH 18 0
BBX 15 18 2 0
BITMAP
07C0
1FF0
3FF8
7C7C
701C
F01E
E00E
E00E
E00E
E00E
E00E
E00E
F01E
701C
7C7C
3FF8
1FF0
07C0
ENDCHAR
STARTCHAR p
ENCODING 112
SWIDTH 473 0
DWIDTH 18 0
BBX 15 26 2 -8
BITMAP
EFC0
FFF0
FFF8
F07C
E01C
E01E
E00E
E00E
E00E
E00E
E00E
E00E
E01E
E01C
F07C
FFF8
FFF0
EFC0
E000
E000
E000
E000
E000
E000
E000
E000
ENDCHAR
STARTCHAR q
ENCODING 113
SWIDTH 473 0
DWIDTH 18 0
BBX 15 26 2 -8
BITMAP
07EE
1FFE
3FFE
7C1E
700E
F00E
E00E
E00E
E00E
E00E
E00E
E00E
F00E
700E
7C1E
3FFE
1FFE
07EE
000E
000E
000E
000E
000E
000E
000E
000E
ENDCHAR
STARTCHAR r
ENCODING 114
SWIDTH 473 0
DWIDTH 18 0
BBX 15 18 2 0
BITMAP
E7F0
EFFC
FFFE
FC1E
F000
F000
E000
E000
E000
E000
E000
E000
E000
E000
E000
E000
E000
E000
ENDCHAR
STARTCHAR s
ENCODING 115
SWIDTH 473 0
DWIDTH 18 0
BBX 15 18 2 0
BITMAP
1FF0
7FFC
FFFE
F01E
E000
E000
F000
FF00
7FF0
1FFC
01FE
001E
000E
000E
F01E
FFFE
7FFC
1FF0
ENDCHAR
STARTCHAR t
ENCODING 116
SWIDTH 473 0
DWIDTH 18 0
BBX 15 26 2 0
BITMAP
0E00
0E00
0E00
0E00
0E00
0E00
0E00
0E00
FFF8
FFF8
FFF8
0E00
0E00
0E00
0E00
0E00
0E00
0E00
0E00
0E00
0E00
0F00
0780
07FE
03FE
00FE
ENDCHAR
STARTCHAR u
ENCODING 117
SWIDTH 473 0
DWIDTH 18 0
BBX 15 18 2 0
BITMAP
E00E
E00E
E00E
E00E
E00E
E00E
E00E
E00E
E00E
E00E
E00E
E00E
F00E
700E
7C1E
3FFE
1FFE
07EE
ENDCHAR
STARTCHAR v
ENCODING 118
SWIDTH 473 0
DWIDTH 18 0
BBX 15 18 2 0
BITMAP
E00E
E00E
E00E
E00E
E00E
E00E
701C
701C
3838
3838
1C70
1C70
0EE0
0EE0
07C0
07C0
0380
0380
ENDCHAR
STARTCHAR w
ENCODING 119
SWIDTH 473 0
DWIDTH 18 0
BBX 15 18 2 0
BITMAP
E00E
E00E
E00E
E00E
E00E
E00E
E00E
E38E
E38E
E38E
E7CE
E7CE
EEEE
EEEE
FC7E
7C7C
3838
3838
ENDCHAR
STARTCHAR x
ENCODING 120
SWIDTH 473 0
DWIDTH 18 0
BBX 15 18 2 0
BITMAP
E00E
E00E
E00E
F01E
783C
3C78
1EF0
0FE0
07C0
07C0
0FE0
1EF0
3C78
783C
F01E
E00E
E00E
E00E
ENDCHAR
STARTCHAR y
ENCODING 121
SWIDTH 473 0
DWIDTH 18 0
BBX 15 26 2 -8
BITMAP
E00E
E00E
E00E
E00E
E00E
E00E
E00E
E00E
E00E
E00E
E00E
E00E
F00E
700E
7C1E
3FFE
1FFE
07EE
000E
000E
001E
001C
007C
3FF8
3FF0
3FC0
ENDCHAR
STARTCHAR z
ENCODING 122
SWIDTH 473 0
DWIDTH 18 0
BBX 15 18 2 0
BITMAP
FFFE
FFFE
FFFE
001E
003C
0078
00F0
01E0
03C0
0780
0F00
1E00
3C00
7800
F000
FFFE
FFFE
FFFE
ENDCHAR
STARTCHAR braceleft
ENCODING 123
SWIDTH 473 0
DWIDTH 18 0
BBX 11 30 4 -2
BITMAP
0FE0
1FE0
3FE0
3C00
3800
3800
3800
3C00
1C00
1E00
0E00
0E00
1E00
7E00
FC00
FC00
7E00
1E00
0E00
0E00
1E00
1C00
3C00
3800
3800
3800
3C00
3FE0
1FE0
0FE0
ENDCHAR
STARTCHAR bar
ENCODING 124
SWIDTH 473 0
DWIDTH 18 0
BBX 3 28 8 -2
BITMAP
E0
E0
E0
E0
E0
E0
E0
E0
E0
E0
E0
E0
E0
E0
E0
E0
E0
E0
E0
E0
E0
E0
E0
E0
E0
E0
E0
E0
ENDCHAR
STARTCHAR braceright
ENCODING 125
SWIDTH 473 0
DWIDTH 18 0
BBX 11 30 4 -2
BITMAP
FE00
FF00
FF80
0780
0380
0380
0380
0780
0700
0F00
0E00
0E00
0F00
0FC0
07E0
07E0
0FC0
0F00
0E00
0E00
0F00
0700
0780
0380
0380
0380
0780
FF80
FF00
FE00
ENDCHAR
STARTCHAR asciitilde
ENCODING 126
SWIDTH 473 0
DWIDTH 18 0
BBX 15 6 2 12
BITMAP
3E0E
7F0E
FF8E
E3FE
E1FC
E0F8
ENDCHAR
STARTCHAR uni00A0
ENCODING 160
SWIDTH 473 0
DWIDTH 18 0
BBX 1 1 0 0
BITMAP
00
ENDCHAR
STARTCHAR exclamdown
ENCODING 161
SWIDTH 473 0
DWIDTH 18 0
BBX 4 24 7 -6
BITMAP
60
F0
F0
60
00
00
00
60
60
60
60
60
60
60
60
60
60
60
60
60
60
60
60
60
ENDCHAR
STARTCHAR cent
ENCODING 162
SWIDTH 473 0
DWIDTH 18 0
BBX 14 26 2 -4
BITMAP
0300
0300
0300
0300
0780
1FE0
3B70
7338
631C
E30C
C300
C300
C300
C300
C300
C300
E30C
631C
7338
3B70
1FE0
0780
0300
0300
0300
0300
ENDCHAR
STARTCHAR sterling
ENCODING 163
SWIDTH 473 0
DWIDTH 18 0
BBX 14 24 2 0
BITMAP
03F0
07F8
0E1C
0C0C
0C00
0C00
0C00
0C00
0C00
0C00
FFF0
FFF0
0C00
0C00
0C00
0C00
0C00
0C00
1C00
1800
3800
7000
FFFC
FFFC
ENDCHAR
STARTCHAR currency
ENCODING 164
SWIDTH 473 0
DWIDTH 18 0
BBX 14 14 2 4
BITMAP
C78C
EFDC
7CF8
3030
6018
E01C
C00C
C00C
E01C
6018
3030
7CF8
EFDC
C78C
ENDCHAR
STARTCHAR yen
ENCODING 165
SWIDTH 473 0
DWIDTH 18 0
BBX 14 24 2 0
BITMAP
C00C
C00C
C00C
C00C
C00C
C00C
C00C
E01C
7038
3870
1CE0
0FC0
FFFC
FFFC
0300
0300
FFFC
FFFC
0300
0300
0300
0300
0300
0300
ENDCHAR
STARTCHAR brokenbar
ENCODING 166
SWIDTH 473 0
DWIDTH 18 0
BBX 2 28 8 -2
BITMAP
C0
C0
C0
C0
C0
C0
C0
C0
C0
C0
C0
C0
00
00
00
00
C0
C0
C0
C0
C0
C0
C0
C0
C0
C0
C0
C0
ENDCHAR
STARTCHAR section
ENCODING 167
SWIDTH 473 0
DWIDTH 18 0
BBX 10 26 4 -2
BITMAP
3F00
7F80
E1C0
C0C0
C000
C000
C000
E000
7000
7C00
7E00
E700
C380
C1C0
E0C0
70C0
39C0
1F80
0F80
0380
01C0
00C0
C0C0
E1C0
7F80
3F00
ENDCHAR
STARTCHAR dieresis
ENCODING 168
SWIDTH 473 0
DWIDTH 18 0
BBX 8 3 5 22
BITMAP
E7
E7
E7
ENDCHAR
STARTCHAR copyright
ENCODING 169
SWIDTH 473 0
DWIDTH 18 0
BBX 16 22 2 2
BITMAP
07E0
1FF8
3C3C
700E
63C6
E7E7
CE73
CC33
CC03
CC03
CC03
CC03
CC03
CC03
CC33
CE73
E7E7
63C6
700E
3C3C
1FF8
07E0
ENDCHAR
STARTCHAR ordfeminine
ENCODING 170
SWIDTH 473 0
DWIDTH 18 0
BBX 10 16 4 10
BITMAP
3F00
3F80
01C0
00C0
3FC0
7FC0
E0C0
C0C0
C0C0
E0C0
7FC0
3FC0
0000
0000
FFC0
FFC0
ENDCHAR
STARTCHAR guillemotleft
ENCODING 171
SWIDTH 473 0
DWIDTH 18 0
BBX 14 14 2 6
BITMAP
030C
071C
0E38
1C70
38E0
71C0
E380
E380
71C0
38E0
1C70
0E38
071C
030C
ENDCHAR
STARTCHAR logicalnot
ENCODING 172
SWIDTH 473 0
DWIDTH 18 0
BBX 14 6 2 6
BITMAP
FFFC
FFFC
000C
000C
000C
000C
ENDCHAR
STARTCHAR uni00AD
ENCODING 173
SWIDTH 473 0
DWIDTH 18 0
BBX 12 2 4 10
BITMAP
FFF0
FFF0
ENDCHAR
STARTCHAR registered
ENCODING 174
SWIDTH 473 0
DWIDTH 18 0
BBX 16 22 2 2
BITMAP
07E0
1FF8
3C3C
700E
6FC6
EFE7
CC73
CC33
CC33
CC73
CFE3
CFE3
CC63
CC63
CC63
CC33
EC37
6C36
700E
3C3C
1FF8
07E0
ENDCHAR
STARTCHAR macron
ENCODING 175
SWIDTH 473 0
DWIDTH 18 0
BBX 10 2 4 24
BITMAP
FFC0
FFC0
ENDCHAR
STARTCHAR degree
ENCODING 176
SWIDTH 473 0
DWIDTH 18 0
BBX 10 10 4 16
BITMAP
1E00
3F00
7380
E1C0
C0C0
C0C0
E1C0
7380
3F00
1E00
ENDCHAR
STARTCHAR plusminus
ENCODING 177
SWIDTH 473 0
DWIDTH 18 0
BBX 14 18 2 0
BITMAP
0300
0300
0300
0300
0300
0300
FFFC
FFFC
0300
0300
0300
0300
0300
0300
0000
0000
FFFC
FFFC
ENDCHAR
STARTCHAR uni00B2
ENCODING 178
SWIDTH 473 0
DWIDTH 18 0
BBX 10 14 4 14
BITMAP
3F00
7F80
E1C0
C0C0
00C0
01C0
0380
0700
0E00
1C00
3800
7000
FFC0
FFC0
ENDCHAR
STARTCHAR uni00B3
ENCODING 179
SWIDTH 473 0
DWIDTH 18 0
BBX 10 14 4 14
BITMAP
7F00
FF80
C1C0
00C0
00C0
01C0
3F80
3F80
01C0
00C0
00C0
C1C0
FF80
7F00
ENDCHAR
STARTCHAR acute
ENCODING 180
SWIDTH 473 0
DWIDTH 18 0
BBX 6 6 6 20
BITMAP
0C
1C
38
70
E0
C0
ENDCHAR
STARTCHAR mu
ENCODING 181
SWIDTH 473 0
DWIDTH 18 0
BBX 16 26 2 -8
BITMAP
C00C
C00C
C00C
C00C
C00C
C00C
C00C
C00C
C00C
C00C
C00C
C00C
E01C
E01C
F03C
FCF6
DFE7
C783
C000
C000
C000
C000
C000
C000
C000
C000
ENDCHAR
STARTCHAR paragraph
ENCODING 182
SWIDTH 473 0
DWIDTH 18 0
BBX 14 24 2 0
BITMAP
07FC
1FFC
3FCC
7FCC
7FCC
FFCC
FFCC
FFCC
FFCC
7FCC
7FCC
3FCC
1FCC
07CC
00CC
00CC
00CC
00CC
00CC
00CC
00CC
00CC
00CC
00CC
ENDCHAR
STARTCHAR periodcentered
ENCODING 183
SWIDTH 473 0
DWIDTH 18 0
BBX 4 4 8 10
BITMAP
F0
F0
F0
F0
ENDCHAR
STARTCHAR cedilla
ENCODING 184
SWIDTH 473 0
DWIDTH 18 0
BBX 6 8 6 -8
BITMAP
30
38
1C
0C
0C
1C
F8
F0
ENDCHAR
STARTCHAR uni00B9
ENCODING 185
SWIDTH 473 0
DWIDTH 18 0
BBX 10 14 4 14
BITMAP
0C00
1C00
3C00
7C00
EC00
CC00
0C00
0C00
0C00
0C00
0C00
0C00
FFC0
FFC0
ENDCHAR
STARTCHAR ordmasculine
ENCODING 186
SWIDTH 473 0
DWIDTH 18 0
BBX 10 16 4 10
BITMAP
1E00
3F00
7380
E1C0
C0C0
C0C0
C0C0
C0C0
E1C0
7380
3F00
1E00
0000
0000
FFC0
FFC0
ENDCHAR
STARTCHAR guillemotright
ENCODING 187
SWIDTH 473 0
DWIDTH 18 0
BBX 14 14 2 6
BITMAP
C300
E380
71C0
38E0
1C70
0E38
071C
071C
0E38
1C70
38E0
71C0
E380
C300
ENDCHAR
STARTCHAR onequarter
ENCODING 188
SWIDTH 473 0
DWIDTH 18 0
BBX 14 32 2 -4
BITMAP
0C00
1C00
3C00
7C00
EC00
CC00
0C00
0C00
0C00
0C00
0C00
0C0C
7F98
7FB0
0060
00C0
0180
0300
0630
0C70
18F0
31F0
63B0
C730
0E30
0C30
0FFC
0FFC
0030
0030
0030
0030
ENDCHAR
STARTCHAR onehalf
ENCODING 189
SWIDTH 473 0
DWIDTH 18 0
BBX 16 32 2 -4
BITMAP
0C00
1C00
3C00
7C00
EC00
CC00
0C00
0C00
0C00
0C00
0C00
0C0C
7F98
7FB0
0060
00C0
0180
0300
067C
0CFE
19C7
3383
6003
C007
000E
001C
0038
0070
00E0
01C0
03FF
03FF
ENDCHAR
STARTCHAR threequarters
ENCODING 190
SWIDTH 473 0
DWIDTH 18 0
BBX 14 32 2 -4
BITMAP
FF00
FF80
01C0
00C0
00C0
01C0
3F80
3F80
01C0
00C0
00C0
01CC
FF98
FF30
0060
00C0
0180
0300
0630
0C70
18F0
31F0
63B0
C730
0E30
0C30
0FFC
0FFC
0030
0030
0030
0030
ENDCHAR
STARTCHAR questiondown
ENCODING 191
SWIDTH 473 0
DWIDTH 18 0
BBX 14 24 2 -6
BITMAP
0300
0780
0780
0300
0000
0000
0300
0300
0300
0700
0E00
1C00
3800
7000
6000
E000
C000
C000
E00C
601C
7038
3CF0
1FE0
0780
ENDCHAR
STARTCHAR Agrave
ENCODING 192
SWIDTH 473 0
DWIDTH 18 0
BBX 14 30 2 0
BITMAP
1C00
0E00
0700
0300
0000
0000
0300
0300
0780
0780
0CC0
0CC0
1860
1860
3030
3030
6018
6018
C00C
C00C
FFFC
FFFC
C00C
C00C
C00C
C00C
C00C
C00C
C00C
C00C
ENDCHAR
STARTCHAR Aacute
ENCODING 193
SWIDTH 473 0
DWIDTH 18 0
BBX 14 30 2 0
BITMAP
00E0
01C0
0380
0300
0000
0000
0300
0300
0780
0780
0CC0
0CC0
1860
1860
3030
3030
6018
6018
C00C
C00C
FFFC
FFFC
C00C
C00C
C00C
C00C
C00C
C00C
C00C
C00C
ENDCHAR
STARTCHAR Acircumflex
ENCODING 194
SWIDTH 473 0
DWIDTH 18 0
BBX 14 30 2 0
BITMAP
0300
0780
0CC0
1860
0000
0000
0300
0300
0780
0780
0CC0
0CC0
1860
1860
3030
3030
6018
6018
C00C
C00C
FFFC
FFFC
C00C
C00C
C00C
C00C
C00C
C00C
C00C
C00C
ENDCHAR
STARTCHAR Atilde
ENCODING 195
SWIDTH 473 0
DWIDTH 18 0
BBX 14 30 2 0
BITMAP
1C08
3F18
63F0
40E0
0000
0000
0300
0300
0780
0780
0CC0
0CC0
1860
1860
3030
3030
6018
6018
C00C
C00C
FFFC
FFFC
C00C
C00C
C00C
C00C
C00C
C00C
C00C
C00C
ENDCHAR
STARTCHAR Adieresis
ENCODING 196
SWIDTH 473 0
DWIDTH 18 0
BBX 14 29 2 0
BITMAP
1CE0
1CE0
1CE0
0000
0000
0300
0300
0780
0780
0CC0
0CC0
1860
1860
3030
3030
6018
6018
C00C
C00C
FFFC
FFFC
C00C
C00C
C00C
C00C
C00C
C00C
C00C
C00C
ENDCHAR
STARTCHAR Aring
ENCODING 197
SWIDTH 473 0
DWIDTH 18 0
BBX 14 30 2 0
BITMAP
0780
0CC0
0840
0840
0CC0
0780
0300
0300
0780
0780
0CC0
0CC0
1860
1860
3030
3030
6018
6018
C00C
C00C
FFFC
FFFC
C00C
C00C
C00C
C00C
C00C
C00C
C00C
C00C
ENDCHAR
STARTCHAR AE
ENCODING 198
SWIDTH 473 0
DWIDTH 18 0
BBX 15 24 2 0
BITMAP
03FE
07FE
0F00
0F00
1B00
1B00
3300
3300
6300
6300
C3FC
C3FC
C300
C300
FF00
FF00
C300
C300
C300
C300
C300
C300
C3FE
C3FE
ENDCHAR
STARTCHAR Ccedilla
ENCODING 199
SWIDTH 473 0
DWIDTH 18 0
BBX 14 32 2 -8
BITMAP
0780
1FE0
3CF0
7038
6018
E01C
C00C
C000
C000
C000
C000
C000
C000
C000
C000
C000
C000
C00C
E01C
6018
7038
3CF0
1FE0
0780
0300
0300
00C0
00C0
00C0
00C0
0F00
0F00
ENDCHAR
STARTCHAR Egrave
ENCODING 200
SWIDTH 473 0
DWIDTH 18 0
BBX 14 30 2 0
BITMAP
1C00
0E00
0700
0300
0000
0000
FFFC
FFFC
C000
C000
C000
C000
C000
C000
C000
C000
FFF0
FFF0
C000
C000
C000
C000
C000
C000
C000
C000
C000
C000
FFFC
FFFC
ENDCHAR
STARTCHAR Eacute
ENCODING 201
SWIDTH 473 0
DWIDTH 18 0
BBX 14 30 2 0
BITMAP
00E0
01C0
0380
0300
0000
0000
FFFC
FFFC
C000
C000
C000
C000
C000
C000
C000
C000
FFF0
FFF0
C000
C000
C000
C000
C000
C000
C000
C000
C000
C000
FFFC
FFFC
ENDCHAR
STARTCHAR Ecircumflex
ENCODING 202
SWIDTH 473 0
DWIDTH 18 0
BBX 14 30 2 0
BITMAP
0300
0780
0CC0
1860
0000
0000
FFFC
FFFC
C000
C000
C000
C000
C000
C000
C000
C000
FFF0
FFF0
C000
C000
C000
C000
C000
C000
C000
C000
C000
C000
FFFC
FFFC
ENDCHAR
STARTCHAR Edieresis
ENCODING 203
SWIDTH 473 0
DWIDTH 18 0
BBX 14 29 2 0
BITMAP
1CE0
1CE0
1CE0
0000
0000
FFFC
FFFC
C000
C000
C000
C000
C000
C000
C000
C000
FFF0
FFF0
C000
C000
C000
C000
C000
C000
C000
C000
C000
C000
FFFC
FFFC
ENDCHAR
STARTCHAR Igrave
ENCODING 204
SWIDTH 473 0
DWIDTH 18 0
BBX 14 30 2 0
BITMAP
1C00
0E00
0700
0300
0000
0000
FFFC
FFFC
0300
0300
0300
0300
0300
0300
0300
0300
0300
0300
0300
0300
0300
0300
0300
0300
0300
0300
0300
0300
FFFC
FFFC
ENDCHAR
STARTCHAR Iacute
ENCODING 205
SWIDTH 473 0
DWIDTH 18 0
BBX 14 30 2 0
BITMAP
00E0
01C0
0380
0300
0000
0000
FFFC
FFFC
0300
0300
0300
0300
0300
0300
0300
0300
0300
0300
0300
0300
0300
0300
0300
0300
0300
0300
0300
0300
FFFC
FFFC
ENDCHAR
STARTCHAR Icircumflex
ENCODING 206
SWIDTH 473 0
DWIDTH 18 0
BBX 14 30 2 0
BITMAP
0300
0780
0CC0
1860
0000
0000
FFFC
FFFC
0300
0300
0300
0300
0300
0300
0300
0300
0300
0300
0300
0300
0300
0300
0300
0300
0300
0300
0300
0300
FFFC
FFFC
ENDCHAR
STARTCHAR Idieresis
ENCODING 207
SWIDTH 473 0
DWIDTH 18 0
BBX 14 29 2 0
BITMAP
1CE0
1CE0
1CE0
0000
0000
FFFC
FFFC
0300
0300
0300
0300
0300
0300
0300
0300
0300
0300
0300
0300
0300
0300
0300
0300
0300
0300
0300
0300
FFFC
FFFC
ENDCHAR
STARTCHAR Eth
ENCODING 208
SWIDTH 473 0
DWIDTH 18 0
BBX 14 24 2 0
BITMAP
3E00
3F80
33C0
30E0
3070
3038
3018
301C
300C
300C
FF0C
FF0C
300C
300C
300C
300C
301C
3018
3038
3070
30E0
33C0
3F80
3E00
ENDCHAR
STARTCHAR Ntilde
ENCODING 209
SWIDTH 473 0
DWIDTH 18 0
BBX 14 30 2 0
BITMAP
1C08
3F18
63F0
40E0
0000
0000
C00C
E00C
E00C
F00C
F00C
D80C
D80C
CC0C
CC0C
C60C
C60C
C30C
C30C
C18C
C18C
C0CC
C0CC
C06C
C06C
C03C
C03C
C01C
C01C
C00C
ENDCHAR
STARTCHAR Ograve
ENCODING 210
SWIDTH 473 0
DWIDTH 18 0
BBX 14 30 2 0
BITMAP
1C00
0E00
0700
0300
0000
0000
0780
1FE0
3CF0
7038
6018
E01C
C00C
C00C
C00C
C00C
C00C
C00C
C00C
C00C
C00C
C00C
C00C
C00C
E01C
6018
7038
3CF0
1FE0
0780
ENDCHAR
STARTCHAR Oacute
ENCODING 211
SWIDTH 473 0
DWIDTH 18 0
BBX 14 30 2 0
BITMAP
00E0
01C0
0380
0300
0000
0000
0780
1FE0
3CF0
7038
6018
E01C
C00C
C00C
C00C
C00C
C00C
C00C
C00C
C00C
C00C
C00C
C00C
C00C
E01C
6018
7038
3CF0
1FE0
0780
ENDCHAR
STARTCHAR Ocircumflex
ENCODING 212
SWIDTH 473 0
DWIDTH 18 0
BBX 14 30 2 0
BITMAP
0300
0780
0CC0
1860
0000
0000
0780
1FE0
3CF0
7038
6018
E01C
C00C
C00C
C00C
C00C
C00C
C00C
C00C
C00C
C00C
C00C
C00C
C00C
E01C
6018
7038
3CF0
1FE0
0780
ENDCHAR
STARTCHAR Otilde
ENCODING 213
SWIDTH 473 0
DWIDTH 18 0
BBX 14 30 2 0
BITMAP
1C08
3F18
63F0
40E0
0000
0000
0780
1FE0
3CF0
7038
6018
E01C
C00C
C00C
C00C
C00C
C00C
C00C
C00C
C00C
C00C
C00C
C00C
C00C
E01C
6018
7038
3CF0
1FE0
0780
ENDCHAR
STARTCHAR Odieresis
ENCODING 214
SWIDTH 473 0
DWIDTH 18 0
BBX 14 29 2 0
BITMAP
1CE0
1CE0
1CE0
0000
0000
0780
1FE0
3CF0
7038
6018
E01C
C00C
C00C
C00C
C00C
C00C
C00C
C00C
C00C
C00C
C00C
C00C
C00C
E01C
6018
7038
3CF0
1FE0
0780
ENDCHAR
STARTCHAR multiply
ENCODING 215
SWIDTH 473 0
DWIDTH 18 0
BBX 14 14 2 4
BITMAP
C00C
E01C
7038
3870
1CE0
0FC0
0780
0780
0FC0
1CE0
3870
7038
E01C
C00C
ENDCHAR
STARTCHAR Oslash
ENCODING 216
SWIDTH 473 0
DWIDTH 18 0
BBX 14 24 2 0
BITMAP
078C
1FEC
3CF8
7038
6038
E03C
C06C
C06C
C0CC
C0CC
C18C
C18C
C30C
C60C
C60C
CC0C
CC0C
D80C
D81C
7018
7038
7CF0
DFE0
C780
ENDCHAR
STARTCHAR Ugrave
ENCODING 217
SWIDTH 473 0
DWIDTH 18 0
BBX 14 30 2 0
BITMAP
1C00
0E00
0700
0300
0000
0000
C00C
C00C
C00C
C00C
C00C
C00C
C00C
C00C
C00C
C00C
C00C
C00C
C00C
C00C
C00C
C00C
C00C
C00C
E01C
6018
7038
3CF0
1FE0
0780
ENDCHAR
STARTCHAR Uacute
ENCODING 218
SWIDTH 473 0
DWIDTH 18 0
BBX 14 30 2 0
BITMAP
00E0
01C0
0380
0300
0000
0000
C00C
C00C
C00C
C00C
C00C
C00C
C00C
C00C
C00C
C00C
C00C
C00C
C00C
C00C
C00C
C00C
C00C
C00C
E01C
6018
7038
3CF0
1FE0
0780
ENDCHAR
STARTCHAR Ucircumflex
ENCODING 219
SWIDTH 473 0
DWIDTH 18 0
BBX 14 30 2 0
BITMAP
0300
0780
0CC0
1860
0000
0000
C00C
C00C
C00C
C00C
C00C
C00C
C00C
C00C
C00C
C00C
C00C
C00C
C00C
C00C
C00C
C00C
C00C
C00C
E01C
6018
7038
3CF0
1FE0
0780
ENDCHAR
STARTCHAR Udieresis
ENCODING 220
SWIDTH 473 0
DWIDTH 18 0
BBX 14 29 2 0
BITMAP
1CE0
1CE0
1CE0
0000
0000
C00C
C00C
C00C
C00C
C00C
C00C
C00C
C00C
C00C
C00C
C00C
C00C
C00C
C00C
C00C
C00C
C00C
C00C
E01C
6018
7038
3CF0
1FE0
0780
ENDCHAR
STARTCHAR Yacute
ENCODING 221
SWIDTH 473 0
DWIDTH 18 0
BBX 14 30 2 0
BITMAP
00E0
01C0
0380
0300
0000
0000
C00C
C00C
C00C
C00C
C00C
C00C
C00C
E01C
7038
3870
1CE0
0FC0
0780
0300
0300
0300
0300
0300
0300
0300
0300
0300
0300
0300
ENDCHAR
STARTCHAR Thorn
ENCODING 222
SWIDTH 473 0
DWIDTH 18 0
BBX 14 24 2 0
BITMAP
C000
C000
C000
C000
FF80
FFE0
C0F0
C038
C018
C01C
C00C
C00C
C01C
C018
C038
C0F0
FFE0
FF80
C000
C000
C000
C000
C000
C000
ENDCHAR
STARTCHAR germandbls
ENCODING 223
SWIDTH 473 0
DWIDTH 18 0
BBX 14 26 2 0
BITMAP
3FC0
7FE0
6070
E030
C030
C030
C070
C060
C0E0
C1C0
C380
C300
C300
C380
C1C0
C0E0
C070
C038
C01C
C00C
C00C
C00C
CC0C
CE1C
C7F8
C3F0
ENDCHAR
STARTCHAR agrave
ENCODING 224
SWIDTH 473 0
DWIDTH 18 0
BBX 14 24 2 0
BITMAP
1C00
0E00
0700
0300
0000
0000
1FC0
7FF0
F078
C018
001C
000C
000C
000C
1FFC
7FFC
700C
E00C
C00C
C00C
E00C
700C
7FFC
1FFC
ENDCHAR
STARTCHAR aacute
ENCODING 225
SWIDTH 473 0
DWIDTH 18 0
BBX 14 24 2 0
BITMAP
00E0
01C0
0380
0300
0000
0000
1FC0
7FF0
F078
C018
001C
000C
000C
000C
1FFC
7FFC
700C
E00C
C00C
C00C
E00C
700C
7FFC
1FFC
ENDCHAR
STARTCHAR acircumflex
ENCODING 226
SWIDTH 473 0
DWIDTH 18 0
BBX 14 24 2 0
BITMAP
0300
0780
0CC0
1860
0000
0000
1FC0
7FF0
F078
C018
001C
000C
000C
000C
1FFC
7FFC
700C
E00C
C00C
C00C
E00C
700C
7FFC
1FFC
ENDCHAR
STARTCHAR atilde
ENCODING 227
SWIDTH 473 0
DWIDTH 18 0
BBX 14 24 2 0
BITMAP
1C08
3F18
63F0
40E0
0000
0000
1FC0
7FF0
F078
C018
001C
000C
000C
000C
1FFC
7FFC
700C
E00C
C00C
C00C
E00C
700C
7FFC
1FFC
ENDCHAR
STARTCHAR adieresis
ENCODING 228
SWIDTH 473 0
DWIDTH 18 0
BBX 14 23 2 0
BITMAP
1CE0
1CE0
1CE0
0000
0000
1FC0
7FF0
F078
C018
001C
000C
000C
000C
1FFC
7FFC
700C
E00C
C00C
C00C
E00C
700C
7FFC
1FFC
ENDCHAR
STARTCHAR aring
ENCODING 229
SWIDTH 473 0
DWIDTH 18 0
BBX 14 25 2 0
BITMAP
0780
0CC0
0840
0840
0CC0
0780
0000
1FC0
7FF0
F078
C018
001C
000C
000C
000C
1FFC
7FFC
700C
E00C
C00C
C00C
E00C
700C
7FFC
1FFC
ENDCHAR
STARTCHAR ae
ENCODING 230
SWIDTH 473 0
DWIDTH 18 0
BBX 14 18 2 0
BITMAP
3CF0
7FF8
E79C
C30C
030C
030C
030C
1F0C
3FFC
73FC
E300
C300
C300
C300
C30C
E79C
7FF8
3CF0
ENDCHAR
STARTCHAR ccedilla
ENCODING 231
SWIDTH 473 0
DWIDTH 18 0
BBX 14 26 2 -8
BITMAP
0780
1FE0
3CF0
7038
601C
E00C
C000
C000
C000
C000
C000
C000
E00C
601C
7038
3CF0
1FE0
0780
0300
0380
01C0
00C0
00C0
01C0
0F80
0F00
ENDCHAR
STARTCHAR egrave
ENCODING 232
SWIDTH 473 0
DWIDTH 18 0
BBX 14 24 2 0
BITMAP
1C00
0E00
0700
0300
0000
0000
0780
1FE0
3CF0
7038
6018
E01C
C00C
C00C
FFFC
FFFC
C000
C000
E000
6000
700C
3C3C
1FF8
07E0
ENDCHAR
STARTCHAR eacute
ENCODING 233
SWIDTH 473 0
DWIDTH 18 0
BBX 14 24 2 0
BITMAP
00E0
01C0
0380
0300
0000
0000
0780
1FE0
3CF0
7038
6018
E01C
C00C
C00C
FFFC
FFFC
C000
C000
E000
6000
700C
3C3C
1FF8
07E0
ENDCHAR
STARTCHAR ecircumflex
ENCODING 234
SWIDTH 473 0
DWIDTH 18 0
BBX 14 24 2 0
BITMAP
0300
0780
0CC0
1860
0000
0000
0780
1FE0
3CF0
7038
6018
E01C
C00C
C00C
FFFC
FFFC
C000
C000
E000
6000
700C
3C3C
1FF8
07E0
ENDCHAR
STARTCHAR edieresis
ENCODING 235
SWIDTH 473 0
DWIDTH 18 0
BBX 14 23 2 0
BITMAP
1CE0
1CE0
1CE0
0000
0000
0780
1FE0
3CF0
7038
6018
E01C
C00C
C00C
FFFC
FFFC
C000
C000
E000
6000
700C
3C3C
1FF8
07E0
ENDCHAR
STARTCHAR igrave
ENCODING 236
SWIDTH 473 0
DWIDTH 18 0
BBX 11 24 4 0
BITMAP
7000
3800
1C00
0C00
0000
0000
FC00
FC00
0C00
0C00
0C00
0C00
0C00
0C00
0C00
0C00
0C00
0C00
0C00
0C00
0C00
0E00
07E0
03E0
ENDCHAR
STARTCHAR iacute
ENCODING 237
SWIDTH 473 0
DWIDTH 18 0
BBX 11 24 4 0
BITMAP
0380
0700
0E00
0C00
0000
0000
FC00
FC00
0C00
0C00
0C00
0C00
0C00
0C00
0C00
0C00
0C00
0C00
0C00
0C00
0C00
0E00
07E0
03E0
ENDCHAR
STARTCHAR icircumflex
ENCODING 238
SWIDTH 473 0
DWIDTH 18 0
BBX 11 24 4 0
BITMAP
0C00
1E00
3300
6180
0000
0000
FC00
FC00
0C00
0C00
0C00
0C00
0C00
0C00
0C00
0C00
0C00
0C00
0C00
0C00
0C00
0E00
07E0
03E0
ENDCHAR
STARTCHAR idieresis
ENCODING 239
SWIDTH 473 0
DWIDTH 18 0
BBX 11 23 4 0
BITMAP
7380
7380
7380
0000
0000
FC00
FC00
0C00
0C00
0C00
0C00
0C00
0C00
0C00
0C00
0C00
0C00
0C00
0C00
0C00
0E00
07E0
03E0
ENDCHAR
STARTCHAR eth
ENCODING 240
SWIDTH 473 0
DWIDTH 18 0
BBX 14 27 2 0
BITMAP
0618
0330
01E0
00C0
01E0
0360
0630
0C30
0018
0018
000C
078C
1FEC
3CFC
703C
601C
E01C
C00C
C00C
C00C
C00C
E01C
6018
7038
3CF0
1FE0
0780
ENDCHAR
STARTCHAR ntilde
ENCODING 241
SWIDTH 473 0
DWIDTH 18 0
BBX 12 24 4 0
BITMAP
3810
7E30
C7E0
81C0
0000
0000
DF00
FFC0
E1E0
C060
C070
C030
C030
C030
C030
C030
C030
C030
C030
C030
C030
C030
C030
C030
ENDCHAR
STARTCHAR ograve
ENCODING 242
SWIDTH 473 0
DWIDTH 18 0
BBX 14 24 2 0
BITMAP
1C00
0E00
0700
0300
0000
0000
0780
1FE0
3CF0
7038
6018
E01C
C00C
C00C
C00C
C00C
C00C
C00C
E01C
6018
7038
3CF0
1FE0
0780
ENDCHAR
STARTCHAR oacute
ENCODING 243
SWIDTH 473 0
DWIDTH 18 0
BBX 14 24 2 0
BITMAP
00E0
01C0
0380
0300
0000
0000
0780
1FE0
3CF0
7038
6018
E01C
C00C
C00C
C00C
C00C
C00C
C00C
E01C
6018
7038
3CF0
1FE0
0780
ENDCHAR
STARTCHAR ocircumflex
ENCODING 244
SWIDTH 473 0
DWIDTH 18 0
BBX 14 24 2 0
BITMAP
0300
0780
0CC0
1860
0000
0000
0780
1FE0
3CF0
7038
6018
E01C
C00C
C00C
C00C
C00C
C00C
C00C
E01C
6018
7038
3CF0
1FE0
0780
ENDCHAR
STARTCHAR otilde
ENCODING 245
SWIDTH 473 0
DWIDTH 18 0
BBX 14 24 2 0
BITMAP
1C08
3F18
63F0
40E0
0000
0000
0780
1FE0
3CF0
7038
6018
E01C
C00C
C00C
C00C
C00C
C00C
C00C
E01C
6018
7038
3CF0
1FE0
0780
ENDCHAR
STARTCHAR odieresis
ENCODING 246
SWIDTH 473 0
DWIDTH 18 0
BBX 14 23 2 0
BITMAP
1CE0
1CE0
1CE0
0000
0000
0780
1FE0
3CF0
7038
6018
E01C
C00C
C00C
C00C
C00C
C00C
C00C
E01C
6018
7038
3CF0
1FE0
0780
ENDCHAR
STARTCHAR divide
ENCODING 247
SWIDTH 473 0
DWIDTH 18 0
BBX 14 14 2 4
BITMAP
0300
0780
0780
0300
0000
0000
FFFC
FFFC
0000
0000
0300
0780
0780
0300
ENDCHAR
STARTCHAR oslash
ENCODING 248
SWIDTH 473 0
DWIDTH 18 0
BBX 14 18 2 0
BITMAP
078C
1FDC
3CF8
7030
6078
E0EC
C1CC
C18C
C38C
C70C
C60C
CE0C
DC1C
7818
3038
7CF0
EFE0
C780
ENDCHAR
STARTCHAR ugrave
ENCODING 249
SWIDTH 473 0
DWIDTH 18 0
BBX 14 24 2 0
BITMAP
1C00
0E00
0700
0300
0000
0000
C00C
C00C
C00C
C00C
C00C
C00C
C00C
C00C
C00C
C00C
C00C
C00C
E00C
600C
700C
3C1C
1FFC
07EC
ENDCHAR
STARTCHAR uacute
ENCODING 250
SWIDTH 473 0
DWIDTH 18 0
BBX 14 24 2 0
BITMAP
00E0
01C0
0380
0300
0000
0000
C00C
C00C
C00C
C00C
C00C
C00C
C00C
C00C
C00C
C00C
C00C
C00C
E00C
600C
700C
3C1C
1FFC
07EC
ENDCHAR
STARTCHAR ucircumflex
ENCODING 251
SWIDTH 473 0
DWIDTH 18 0
BBX 14 24 2 0
BITMAP
0300
0780
0CC0
1860
0000
0000
C00C
C00C
C00C
C00C
C00C
C00C
C00C
C00C
C00C
C00C
C00C
C00C
E00C
600C
700C
3C1C
1FFC
07EC
ENDCHAR
STARTCHAR udieresis
ENCODING 252
SWIDTH 473 0
DWIDTH 18 0
BBX 14 23 2 0
BITMAP
1CE0
1CE0
1CE0
0000
0000
C00C
C00C
C00C
C00C
C00C
C00C
C00C
C00C
C00C
C00C
C00C
C00C
E00C
600C
700C
3C1C
1FFC
07EC
ENDCHAR
STARTCHAR yacute
ENCODING 253
SWIDTH 473 0
DWIDTH 18 0
BBX 14 32 2 -8
BITMAP
00E0
01C0
0380
0300
0000
0000
C00C
C00C
C00C
C00C
C00C
C00C
C00C
C00C
C00C
C00C
C00C
C00C
E00C
600C
700C
3C1C
1FFC
07EC
000C
000C
001C
0018
0038
00F0
3FE0
3F80
ENDCHAR
STARTCHAR thorn
ENCODING 254
SWIDTH 473 0
DWIDTH 18 0
BBX 14 34 2 -8
BITMAP
C000
C000
C000
C000
C000
C000
C000
C000
C780
DFE0
FCF0
F038
E018
C01C
C00C
C00C
C00C
C00C
C00C
C00C
C01C
E018
F038
FCF0
DFE0
C780
C000
C000
C000
C000
C000
C000
C000
C000
ENDCHAR
STARTCHAR ydieresis
ENCODING 255
SWIDTH 473 0
DWIDTH 18 0
BBX 14 31 2 -8
BITMAP
1CE0
1CE0
1CE0
0000
0000
C00C
C00C
C00C
C00C
C00C
C00C
C00C
C00C
C00C
C00C
C00C
C00C
E00C
600C
700C
3C1C
1FFC
07EC
000C
000C
001C
0018
0038
00F0
3FE0
3F80
ENDCHAR
STARTCHAR lambda
ENCODING 955
SWIDTH 473 0
DWIDTH 18 0
BBX 16 24 2 0
BITMAP
FC00
FE00
0600
0700
0300
0300
0700
0780
0780
0D80
0DC0
0CC0
1CC0
18C0
18E0
3860
3060
3060
7070
6030
6030
E038
C01F
C00F
ENDCHAR
STARTCHAR uni2B61
ENCODING 11105
SWIDTH 473 0
DWIDTH 18 0
BBX 10 24 4 2
BITMAP
0C00
1E00
3F00
7F80
FFC0
0C00
0C00
0C00
0C00
0C00
0C00
0C00
0C00
0C00
0C00
0C00
0C00
0C00
0C00
0C00
0C00
0C00
0C00
0C00
ENDCHAR
STARTCHAR uni2B63
ENCODING 11107
SWIDTH 473 0
DWIDTH 18 0
BBX 10 24 4 0
BITMAP
0C00
0C00
0C00
0C00
0C00
0C00
0C00
0C00
0C00
0C00
0C00
0C00
0C00
0C00
0C00
0C00
0C00
0C00
0C00
FFC0
7F80
3F00
1E00
0C00
ENDCHAR
STARTCHAR uni2B81
ENCODING 11137
SWIDTH 473 0
DWIDTH 18 0
BBX 18 26 0 0
BITMAP
0C0000
1E0000
3F0C00
7F8C00
FFCC00
0C0C00
0C0C00
0C0C00
0C0C00
0C0C00
0C0C00
0C0C00
0C0C00
0C0C00
0C0C00
0C0C00
0C0C00
0C0C00
0C0C00
0C0C00
0C0C00
0CFFC0
0C7F80
0C3F00
001E00
000C00
ENDCHAR
STARTCHAR uni2B83
ENCODING 11139
SWIDTH 473 0
DWIDTH 18 0
BBX 18 26 0 0
BITMAP
000C00
001E00
0C3F00
0C7F80
0CFFC0
0C0C00
0C0C00
0C0C00
0C0C00
0C0C00
0C0C00
0C0C00
0C0C00
0C0C00
0C0C00
0C0C00
0C0C00
0C0C00
0C0C00
0C0C00
0C0C00
FFCC00
7F8C00
3F0C00
1E0000
0C0000
ENDCHAR
STARTCHAR LIG
ENCODING -1
SWIDTH 473 0
DWIDTH 18 0
BBX 1 1 0 0
BITMAP
00
ENDCHAR
STARTCHAR hyphen_greater.liga
ENCODING -1
SWIDTH 473 0
DWIDTH 18 0
BBX 30 22 -14 2
BITMAP
00003000
00003800
00001C00
00000E00
00000700
00000380
000001C0
000000E0
00000070
00000038
FFFFFFFC
FFFFFFFC
00000038
00000070
000000E0
000001C0
00000380
00000700
00000E00
00001C00
00003800
00003000
ENDCHAR
STARTCHAR hyphen_hyphen_greater.liga
ENCODING -1
SWIDTH 473 0
DWIDTH 18 0
BBX 48 22 -32 2
BITMAP
000000000C00
000000000E00
000000000700
000000000380
0000000001C0
0000000000E0
000000000070
000000000038
00000000001C
00000000000E
FFFFFFFFFFFF
FFFFFFFFFFFF
00000000000E
00000000001C
000000000038
000000000070
0000000000E0
0000000001C0
000000000380
000000000700
000000000E00
000000000C00
ENDCHAR
STARTCHAR equal_greater.liga
ENCODING -1
SWIDTH 473 0
DWIDTH 18 0
BBX 30 22 -14 2
BITMAP
00003000
00003800
00001C00
00000E00
00000700
00000380
FFFFFFC0
FFFFFFE0
00000070
00000038
0000001C
0000001C
00000038
00000070
FFFFFFE0
FFFFFFC0
00000380
00000700
00000E00
00001C00
00003800
00003000
ENDCHAR
STARTCHAR equal_equal_greater.liga
ENCODING -1
SWIDTH 473 0
DWIDTH 18 0
BBX 48 22 -32 2
BITMAP
000000000C00
000000000E00
000000000700
000000000380
0000000001C0
0000000000E0
FFFFFFFFFFF0
FFFFFFFFFFF8
00000000001C
00000000000E
000000000007
000000000007
00000000000E
00000000001C
FFFFFFFFFFF8
FFFFFFFFFFF0
0000000000E0
0000000001C0
000000000380
000000000700
000000000E00
000000000C00
ENDCHAR
STARTCHAR less_equal_equal.liga
ENCODING -1
SWIDTH 473 0
DWIDTH 18 0
BBX 48 22 -32 2
BITMAP
003000000000
007000000000
00E000000000
01C000000000
038000000000
070000000000
0FFFFFFFFFFF
1FFFFFFFFFFF
380000000000
700000000000
E00000000000
E00000000000
700000000000
380000000000
1FFFFFFFFFFF
0FFFFFFFFFFF
070000000000
038000000000
01C000000000
00E000000000
007000000000
003000000000
ENDCHAR
STARTCHAR less_hyphen_hyphen.liga
ENCODING -1
SWIDTH 473 0
DWIDTH 18 0
BBX 48 22 -32 2
BITMAP
003000000000
007000000000
00E000000000
01C000000000
038000000000
070000000000
0E0000000000
1C0000000000
380000000000
700000000000
FFFFFFFFFFFF
FFFFFFFFFFFF
700000000000
380000000000
1C0000000000
0E0000000000
070000000000
038000000000
01C000000000
00E000000000
007000000000
003000000000
ENDCHAR
STARTCHAR less_hyphen.liga
ENCODING -1
SWIDTH 473 0
DWIDTH 18 0
BBX 30 22 -14 2
BITMAP
00300000
00700000
00E00000
01C00000
03800000
07000000
0E000000
1C000000
38000000
70000000
FFFFFFFC
FFFFFFFC
70000000
38000000
1C000000
0E000000
07000000
03800000
01C00000
00E00000
00700000
00300000
ENDCHAR
STARTCHAR less_exclam_hyphen_hyphen.liga
ENCODING -1
SWIDTH 473 0
DWIDTH 18 0
BBX 66 24 -50 0
BITMAP
003003000000000000
007003000000000000
00E003000000000000
01C003000000000000
038003000000000000
070003000000000000
0E0003000000000000
1C0003000000000000
380003000000000000
700003000000000000
FFFFE31FFFFFFFFFC0
FFFFE31FFFFFFFFFC0
700003000000000000
380003000000000000
1C0003000000000000
0E0003000000000000
070000000000000000
038000000000000000
01C000000000000000
00E003000000000000
007003000000000000
003003000000000000
000003000000000000
000003000000000000
ENDCHAR
STARTCHAR less_equal_greater.liga
ENCODING -1
SWIDTH 473 0
DWIDTH 18 0
BBX 48 22 -32 2
BITMAP
003000000C00
007000000E00
00E000000700
01C000000380
0380000001C0
0700000000E0
0FFFFFFFFFF0
1FFFFFFFFFF8
38000000001C
70000000000E
E00000000007
E00000000007
70000000000E
38000000001C
1FFFFFFFFFF8
0FFFFFFFFFF0
0700000000E0
0380000001C0
01C000000380
00E000000700
007000000E00
003000000C00
ENDCHAR
STARTCHAR equal_equal.liga
ENCODING -1
SWIDTH 473 0
DWIDTH 18 0
BBX 30 12 -14 6
BITMAP
FFFFFFFC
FFFFFFFC
00000000
00000000
00000000
00000000
00000000
00000000
00000000
00000000
FFFFFFFC
FFFFFFFC
ENDCHAR
STARTCHAR equal_equal_equal.liga
ENCODING -1
SWIDTH 473 0
DWIDTH 18 0
BBX 48 14 -32 4
BITMAP
FFFC3FFC3FFF
FFFC3FFC3FFF
000000000000
000000000000
000000000000
000000000000
FFFC3FFC3FFF
FFFC3FFC3FFF
000000000000
000000000000
000000000000
000000000000
FFFC3FFC3FFF
FFFC3FFC3FFF
ENDCHAR
STARTCHAR exclam_equal.liga
ENCODING -1
SWIDTH 473 0
DWIDTH 18 0
BBX 30 24 -14 0
BITMAP
00000C00
00000C00
00001800
00001800
00003000
00003000
FFFFFFFC
FFFFFFFC
0000C000
00018000
00018000
00030000
00030000
00060000
00060000
000C0000
FFFFFFFC
FFFFFFFC
00300000
00300000
00600000
00600000
00C00000
00C00000
ENDCHAR
STARTCHAR exclam_equal_equal.liga
ENCODING -1
SWIDTH 473 0
DWIDTH 18 0
BBX 48 26 -32 -2
BITMAP
000000060000
000000060000
0000000C0000
0000000C0000
000000180000
000000180000
FFFC3FFC3FFF
FFFC3FFC3FFF
000000600000
000000600000
000000C00000
000000C00000
FFFC3FFC3FFF
FFFC3FFC3FFF
000003000000
000003000000
000006000000
000006000000
FFFC3FFC3FFF
FFFC3FFC3FFF
000018000000
000018000000
000030000000
000030000000
000060000000
000060000000
ENDCHAR
ENDFONT
